<?xml version="1.0" encoding="UTF-8" standalone="no"?>
<svg width="256px" height="256px" viewBox="0 0 256 256" version="1.1" xmlns="http://www.w3.org/2000/svg" xmlns:xlink="http://www.w3.org/1999/xlink" xmlns:sketch="http://www.bohemiancoding.com/sketch/ns">
    <!-- Generator: "Sketch Internal" 3.0 (7561) - http://www.bohemiancoding.com/sketch -->
    <title>256</title>
    <description>Created with "Sketch Internal".</description>
    <defs></defs>
    <g id="Page-1" stroke="none" stroke-width="1" fill="none" fill-rule="evenodd" sketch:type="MSPage">
        <g id="256" sketch:type="MSArtboardGroup">
            <g id="code" sketch:type="MSLayerGroup" transform="translate(20.000000, 21.000000)">
                <g id="Layer_1_1_" transform="translate(12.000000, 12.000000)"></g>
                <g id="Layer_3" sketch:type="MSShapeGroup">
                    <circle id="Oval" stroke="#101B30" stroke-width="20" cx="111.2" cy="111.2" r="7.2"></circle>
                    <path d="M60.4,88 L93.2,98.8 C95.2,96.4 98,94.4 100.8,93.2 L100.8,62.8 C100,63.2 99.2,63.6 98,64 C98.8,63.2 99.6,62.4 100.8,61.6 L100.8,33.6 C96.8,35.6 92.8,38.4 89.2,41.6 C73.6,52.8 63.6,69.2 60.4,88 L60.4,88 Z M140.8,46.8 L120.8,32 L120.8,49.6 C127.2,47.2 134,46.4 140.8,46.8 L140.8,46.8 Z M56.4,62 L33.2,79.2 L52.8,85.6 C52,77.6 53.2,70 56.4,62 L56.4,62 Z M42.4,144.4 C42,144 41.6,143.6 41.2,143.6 L52,177.2 C52.4,177.2 52.8,177.6 53.2,177.6 L67.6,157.6 C58.4,155.6 49.6,151.2 42.4,144.4 L42.4,144.4 Z M72,151.6 L91.2,124.8 C90,123.2 89.2,120.8 88.4,118.8 L32,100.4 C32.8,103.2 33.6,106.4 34.8,109.2 C42,128.4 55.6,142.8 72,151.6 L72,151.6 Z M130.4,119.2 C130,120.8 129.2,122 128.4,123.6 L145.2,146.8 C145.6,146 146,145.6 146.4,145.2 C146.4,146 146,147.2 146,148 L162.8,170.8 C164.8,166.8 166.4,162.8 167.6,158.4 C172.4,141.2 170.8,124 164.8,108.4 L130.4,119.2 L130.4,119.2 Z M80,182 L83.6,182 C101.6,181.2 118.4,174.4 132,162.4 L111.6,134.4 L110.8,134.4 L110,134.4 L75.6,181.6 C76.8,182 78.4,182 80,182 L80,182 Z M126.4,98.8 L154.4,89.6 C153.6,88.4 152.4,87.2 151.6,86 C153.2,86.8 155.2,87.6 156.8,88.8 L183.2,80.4 C179.6,76.8 175.2,73.2 170.8,70.4 C156,60.4 138.4,56 121.2,57.6 L121.2,93.6 C122.8,95.2 124.8,96.8 126.4,98.8 L126.4,98.8 Z M70.8,212.8 C77.6,214.8 84.8,215.6 91.6,215.6 C101.6,215.6 110.8,213.6 120,210.4 L66,210.4 C67.6,211.6 69.2,212.4 70.8,212.8 L70.8,212.8 Z M1.2,106.8 C2,126.8 10.4,145.6 25.2,159.6 L5.2,97.6 C2.8,100 1.2,103.2 1.2,106.8 L1.2,106.8 Z M205.2,124 L186,184.4 C188.8,183.6 191.6,182 193.6,179.6 C204,163.2 208,143.6 205.2,124 L205.2,124 Z M80.8,8 C61.2,15.6 45.6,30 36.8,49.2 C36.4,50 36,51.2 35.6,52 L92.4,10.4 C89.2,7.6 84.8,6.8 80.8,8 L80.8,8 Z M173.6,105.2 C177.6,111.2 180.4,118 182,125.2 C182,126 182.4,126.8 182.4,128 L191.6,99.6 L173.6,105.2 L173.6,105.2 Z M108.8,190 L150,190 L151.2,188.8 L137.2,169.6 C130,179.2 120,186.4 108.8,190 L108.8,190 Z M199.2,53.2 C186,36.8 167.6,26.4 146.4,24 L144.4,24 L200.4,65.6 C202.4,61.6 202,56.8 199.2,53.2 L199.2,53.2 Z" id="Shape" fill="#101B30"></path>
                    <path d="M109.2,5.6 L6.8,81.2 L46,204 L172.8,204 L212,81.6 L109.2,5.6 L109.2,5.6 Z M164,196.4 L57.2,196.4 L110.8,122.8 L164,196.4 L164,196.4 Z M169.2,190 L115.6,116.4 L109.2,120.8 L109.6,121.2 L104.8,117.6 L50.4,192.4 L17.2,89.2 L102.4,116.8 L104.8,109.6 L19.2,81.6 L106.4,17.2 L106.4,105.2 L114,105.2 L114,18.8 L199.2,82 L114.8,109.2 L117.2,116.4 L201.2,89.2 L169.2,190 L169.2,190 Z" id="Shape" fill="#101B30"></path>
                    <circle id="Oval" fill="#101B30" cx="173.2" cy="197.2" r="9.2"></circle>
                    <circle id="Oval" fill="#101B30" cx="49.2" cy="201.2" r="9.2"></circle>
                    <circle id="Oval" fill="#101B30" cx="205.2" cy="81.2" r="9.2"></circle>
                    <circle id="Oval" fill="#101B30" cx="9.2" cy="81.2" r="9.2"></circle>
                    <circle id="Oval" fill="#101B30" cx="109.2" cy="9.2" r="9.2"></circle>
                </g>
            </g>
        </g>
    </g>
</svg>