<?xml version="1.0" encoding="UTF-8" standalone="no"?>
<svg width="256px" height="256px" viewBox="0 0 256 256" version="1.1" xmlns="http://www.w3.org/2000/svg" xmlns:xlink="http://www.w3.org/1999/xlink" xmlns:sketch="http://www.bohemiancoding.com/sketch/ns">
    <!-- Generator: "Sketch Internal" 3.0 (7561) - http://www.bohemiancoding.com/sketch -->
    <title>Artboard 1</title>
    <description>Created with "Sketch Internal".</description>
    <defs></defs>
    <g id="Page-1" stroke="none" stroke-width="1" fill="none" fill-rule="evenodd" sketch:type="MSPage">
        <g id="Artboard-1" sketch:type="MSArtboardGroup" fill="#101B30">
            <g id="design-dark" sketch:type="MSLayerGroup" transform="translate(18.000000, 20.000000)">
                <g id="Page-1" sketch:type="MSShapeGroup">
                    <g id="design">
                        <g id="Layer_4" transform="translate(0.000000, 8.000000)">
                            <circle id="Oval" cx="173.2" cy="189.2" r="9.2"></circle>
                            <circle id="Oval" cx="49.2" cy="189.2" r="9.2"></circle>
                            <circle id="Oval" cx="209.2" cy="73.2" r="9.2"></circle>
                            <circle id="Oval" cx="9.2" cy="73.2" r="9.2"></circle>
                            <path d="M136.4,38.4 C153.6,37.6 170.8,44.8 182,59.2 C186,64 193.2,64.8 198,60.8 C202.8,56.8 203.6,49.6 199.6,44.8 C186.4,28.4 168,18 146.8,15.6 C140.4,14.8 134.4,14.8 128.4,15.6 L136,28.8 L136.4,38.4 L136.4,38.4 Z M205.6,112.4 C201.2,91.6 189.6,74 172,62.8 C161.2,55.6 149.2,51.6 136.8,50.4 L136.8,105.6 L136.8,107.2 C136.8,121.6 125.2,132.8 110.8,132.8 C96.4,132.8 84.8,121.2 84.8,107.2 L84.8,106.4 L84.8,37.6 C71.2,50.4 62.8,67.2 60.4,86 C60,90.8 59.6,95.6 60,100.4 C58.8,98.4 58,96 57.2,94 C52,80 52.4,65.2 58.8,51.6 C64.8,38.4 75.6,28.4 88.8,22.8 L96.8,8.4 C96.8,8 96.8,8 96.4,7.6 C94.4,1.6 87.6,-1.2 81.6,0.8 C62,8.4 46.4,22.8 37.6,42 C28.8,61.2 28.4,82.4 35.6,102 C45.2,127.2 66,144.8 90.8,150.8 C88.4,151.2 86,151.6 83.6,151.6 C68.8,152.4 54.4,147.2 43.6,137.2 C32.4,127.2 26,113.6 25.6,98.8 C25.2,92.4 20,87.6 13.6,87.6 C7.2,88 2.4,93.2 2.4,99.6 C3.2,120.4 12.4,140 28,154 C42.4,167.2 61.2,174.8 80.8,174.8 L84.4,174.8 C105.2,174 124.8,164.8 138.8,149.2 C142,145.6 145.2,141.6 147.6,137.6 C147.2,140 146.8,142.4 146,144.8 C138,174.4 107.2,191.6 77.6,183.6 C71.6,182 65.2,185.6 63.2,191.6 C61.6,197.6 65.2,204 71.2,206 C78,208 85.2,208.8 92,208.8 C126.4,208.8 158,186 167.6,151.2 C174.8,125.2 168,98.4 151.6,79.6 C153.6,80.8 156,82 158,83.2 C170.4,91.2 178.8,104 182,118.4 C184.8,132.8 182,147.6 174,160 C170.4,165.2 172,172.4 177.2,176 C179.2,177.2 181.2,178 183.6,178 C187.2,178 191.2,176.4 193.2,172.8 C205.6,154 210,133.2 205.6,112.4 L205.6,112.4 L205.6,112.4 Z" id="Shape"></path>
                        </g>
                        <g id="Layer_3" transform="translate(88.000000, 0.000000)">
                            <path d="M22.4,6.4 L40,37.2 L22.4,48.4 L5.6,37.2 L22.4,6.4 L22.4,6.4 Z M22.4,-1.2 L1.2,38.4 L22.4,52.8 L44.8,38.4 L22.4,-1.2 L22.4,-1.2 Z" id="Shape"></path>
                            <path d="M31.2,16.8 C31.2,16.8 27.6,20 22.8,20 C17.6,20 14.4,16.8 14.4,16.8 L22.8,5.6 L31.2,16.8 L31.2,16.8 Z" id="Shape"></path>
                            <path d="M4,124 L4,38.4 L0.8,38.4 L0.8,114 C1.2,117.6 2.4,120.8 4,124 L4,124 L4,124 Z" id="Shape"></path>
                            <path d="M44.8,112 L44.8,112 L44.8,38.4 L42,38.4 L42,124 C44,120.4 44.8,116 44.8,112 L44.8,112 L44.8,112 Z" id="Shape"></path>
                            <path d="M24,134.8 L25.6,134.8 L25.6,50.4 L19.6,50.4 L19.6,134.4 C20.8,134.8 22.4,134.8 24,134.8 L24,134.8 L24,134.8 Z" id="Shape"></path>
                        </g>
                    </g>
                </g>
            </g>
        </g>
    </g>
</svg>