<?xml version="1.0" encoding="UTF-8" standalone="no"?>
<svg width="256px" height="256px" viewBox="0 0 256 256" version="1.1" xmlns="http://www.w3.org/2000/svg" xmlns:xlink="http://www.w3.org/1999/xlink" xmlns:sketch="http://www.bohemiancoding.com/sketch/ns">
    <!-- Generator: "Sketch Internal" 3.0 (7561) - http://www.bohemiancoding.com/sketch -->
    <title>256</title>
    <description>Created with "Sketch Internal".</description>
    <defs></defs>
    <g id="Page-1" stroke="none" stroke-width="1" fill="none" fill-rule="evenodd" sketch:type="MSPage">
        <g id="256" sketch:type="MSArtboardGroup">
            <g id="help" sketch:type="MSLayerGroup" transform="translate(41.000000, 25.000000)">
                <g id="Layer_3" transform="translate(0.000000, 14.320755)" stroke="#101B30" stroke-width="7.8" sketch:type="MSShapeGroup">
                    <path d="M22.4641791,165.860377 L22.4641791,0.390566038 L15.5820896,0.390566038 C7.0119403,0.390566038 0,7.42075472 0,16.0132075 L0,176.926415 C0,185.518868 7.0119403,192.549057 15.5820896,192.549057 L144.264179,192.549057 C152.834328,192.549057 159.846269,185.518868 159.846269,176.926415 L159.846269,165.990566 L22.4641791,165.990566 L22.4641791,165.860377 Z" id="Shape"></path>
                </g>
                <g id="Layer_5" transform="translate(14.283582, 0.000000)" fill="#101B30" sketch:type="MSShapeGroup">
                    <path d="M77.9104478,90.6113208 L77.5208955,90.6113208 C72.7164179,90.8716981 68.9507463,94.9075472 69.080597,99.854717 C69.3402985,104.671698 73.3656716,108.44717 78.3,108.316981 C80.6373134,108.186792 82.8447761,107.145283 84.4029851,105.45283 C85.961194,103.760377 86.8701493,101.416981 86.7402985,99.0735849 C86.480597,94.2566038 82.5850746,90.6113208 77.9104478,90.6113208 L77.9104478,90.6113208 Z M125.955224,18.2264151 L125.955224,-0.130188679 L15.0626866,-0.130188679 C6.49253731,-0.130188679 -0.519402985,6.9 -0.519402985,15.4924528 L-0.519402985,176.40566 C-0.519402985,184.998113 6.49253731,192.028302 15.0626866,192.028302 L143.744776,192.028302 C152.314925,192.028302 159.326866,184.998113 159.326866,176.40566 L159.326866,33.8490566 L141.537313,33.8490566 C132.967164,33.8490566 125.955224,26.8188679 125.955224,18.2264151 L125.955224,18.2264151 Z M21.6850746,18.2264151 L106.737313,18.2264151 C109.334328,18.2264151 111.541791,20.1792453 111.541791,22.7830189 C111.541791,25.3867925 109.334328,27.3396226 106.737313,27.3396226 L21.6850746,27.3396226 C19.0880597,27.3396226 16.880597,25.3867925 16.880597,22.7830189 C16.880597,20.1792453 19.0880597,18.2264151 21.6850746,18.2264151 L21.6850746,18.2264151 Z M81.5462687,57.6735849 C81.5462687,59.7566038 79.858209,61.4490566 77.780597,61.4490566 C75.7029851,61.4490566 74.0149254,59.7566038 74.0149254,57.6735849 C74.0149254,55.590566 75.7029851,53.8981132 77.780597,53.8981132 C79.858209,53.8981132 81.5462687,55.590566 81.5462687,57.6735849 L81.5462687,57.6735849 Z M21.6850746,33.8490566 L45.8373134,33.8490566 C48.4343284,33.8490566 50.641791,35.8018868 50.641791,38.4056604 C50.641791,41.009434 48.4343284,42.9622642 45.8373134,42.9622642 L21.6850746,42.9622642 C19.0880597,42.9622642 16.880597,41.009434 16.880597,38.4056604 C16.880597,35.8018868 19.0880597,33.8490566 21.6850746,33.8490566 L21.6850746,33.8490566 Z M41.0328358,86.445283 C41.0328358,88.5283019 39.3447761,90.2207547 37.2671642,90.2207547 C35.1895522,90.2207547 33.5014925,88.5283019 33.5014925,86.445283 C33.5014925,84.3622642 35.1895522,82.6698113 37.2671642,82.6698113 C39.3447761,82.6698113 41.0328358,84.3622642 41.0328358,86.445283 L41.0328358,86.445283 Z M106.737313,175.754717 L21.6850746,175.754717 C19.0880597,175.754717 16.880597,173.801887 16.880597,171.198113 C16.880597,168.59434 19.0880597,166.641509 21.6850746,166.641509 L106.737313,166.641509 C109.334328,166.641509 111.541791,168.59434 111.541791,171.198113 C111.541791,173.801887 109.334328,175.754717 106.737313,175.754717 L106.737313,175.754717 Z M49.4731343,133.964151 C49.4731343,131.881132 51.161194,130.188679 53.238806,130.188679 C55.3164179,130.188679 57.0044776,131.881132 57.0044776,133.964151 C57.0044776,136.04717 55.3164179,137.739623 53.238806,137.739623 C51.161194,137.739623 49.4731343,136.04717 49.4731343,133.964151 L49.4731343,133.964151 Z M98.9462687,132.922642 C98.9462687,130.839623 100.634328,129.14717 102.71194,129.14717 C104.789552,129.14717 106.477612,130.839623 106.477612,132.922642 C106.477612,135.00566 104.789552,136.698113 102.71194,136.698113 C100.634328,136.698113 98.9462687,135.00566 98.9462687,132.922642 L98.9462687,132.922642 Z M111.41194,126.413208 C110.502985,127.715094 109.074627,128.496226 107.516418,128.496226 C106.607463,128.496226 105.698507,128.235849 104.919403,127.715094 C102.841791,126.283019 102.192537,123.418868 103.620896,121.335849 C106.867164,116.388679 108.035821,110.4 106.867164,104.541509 C105.698507,98.6830189 102.322388,93.6056604 97.258209,90.3509434 C96.4791045,89.8301887 95.5701493,89.309434 94.661194,88.9188679 C101.153731,96.6 103.880597,107.40566 101.023881,117.820755 C97.1283582,131.881132 84.4029851,141.124528 70.5089552,141.124528 C67.7820896,141.124528 64.9253731,140.733962 62.0686567,139.95283 C59.6014925,139.301887 58.1731343,136.698113 58.8223881,134.224528 C59.4716418,131.750943 62.0686567,130.318868 64.5358209,130.969811 C76.4820896,134.224528 88.8179104,127.19434 92.0641791,115.34717 C92.3238806,114.435849 92.4537313,113.524528 92.5835821,112.483019 C91.5447761,114.175472 90.3761194,115.737736 89.0776119,117.169811 C83.3641791,123.418868 75.5731343,127.064151 67.1328358,127.454717 L65.7044776,127.454717 C57.7835821,127.454717 50.2522388,124.590566 44.4089552,119.122642 C38.1761194,113.39434 34.5402985,105.583019 34.1507463,97.1207547 C34.0208955,94.5169811 35.9686567,92.4339623 38.5656716,92.3037736 C41.1626866,92.1735849 43.2402985,94.1264151 43.3701493,96.7301887 C43.6298507,102.718868 46.2268657,108.186792 50.641791,112.222642 C55.0567164,116.258491 60.7701493,118.341509 66.7432836,118.081132 C67.7820896,118.081132 68.6910448,117.950943 69.6,117.690566 C59.7313433,115.216981 51.2910448,108.186792 47.5253731,98.0320755 C44.538806,90.090566 44.7985075,81.4981132 48.3044776,73.8169811 C51.8104478,66.1358491 58.0432836,60.1471698 65.9641791,57.2830189 C68.3014925,56.3716981 71.0283582,57.5433962 71.9373134,60.0169811 C72.8462687,62.3603774 71.6776119,65.0943396 69.2104478,66.0056604 C63.6268657,68.0886792 59.2119403,72.254717 56.7447761,77.7226415 C54.2776119,83.190566 54.0179104,89.309434 56.2253731,94.9075472 C56.6149254,95.8188679 57.0044776,96.7301887 57.3940299,97.5113208 C57.2641791,95.5584906 57.2641791,93.6056604 57.5238806,91.6528302 C58.4328358,83.190566 62.5880597,75.6396226 69.2104478,70.4320755 C75.8328358,65.0943396 84.1432836,62.7509434 92.4537313,63.6622642 C100.89403,64.5735849 108.425373,68.7396226 113.619403,75.3792453 C115.177612,77.3320755 114.91791,80.3264151 112.840299,81.8886792 C110.892537,83.4509434 107.90597,83.190566 106.347761,81.1075472 C98.6865672,71.4735849 84.5328358,69.9113208 74.9238806,77.5924528 C74.1447761,78.2433962 73.4955224,78.8943396 72.8462687,79.545283 C74.6641791,78.7641509 76.4820896,78.2433962 78.4298507,77.8528302 C86.7402985,76.1603774 95.180597,77.7226415 102.192537,82.409434 C109.204478,87.0962264 114.008955,94.2566038 115.826866,102.458491 C117.774627,110.790566 116.086567,119.25283 111.41194,126.413208 L111.41194,126.413208 Z M116.60597,90.2207547 C114.528358,90.2207547 112.840299,88.5283019 112.840299,86.445283 C112.840299,84.3622642 114.528358,82.6698113 116.60597,82.6698113 C118.683582,82.6698113 120.371642,84.3622642 120.371642,86.445283 C120.371642,88.5283019 118.683582,90.2207547 116.60597,90.2207547 L116.60597,90.2207547 Z M143.614925,-0.130188679 L125.955224,-0.130188679 L159.197015,33.8490566 L159.197015,15.4924528 C159.197015,6.9 152.185075,-0.130188679 143.614925,-0.130188679 L143.614925,-0.130188679 Z" id="Shape"></path>
                </g>
            </g>
        </g>
    </g>
</svg>